<svg xmlns="http://www.w3.org/2000/svg" viewBox="0 0 110.53 37.39"><defs><style>.cls-1{fill:#fff;}</style></defs><title>Logo SICV</title><g id="Camada_2" data-name="Camada 2"><g id="Tela_login" data-name="Tela login"><path class="cls-1" d="M77.61,32.19h2a2.06,2.06,0,0,1,1.34.37,1.27,1.27,0,0,1,.44,1,1.16,1.16,0,0,1-.24.73,1.05,1.05,0,0,1-.68.39h0a1.23,1.23,0,0,1,.76.4,1.13,1.13,0,0,1,.28.77,1.24,1.24,0,0,1-.49,1,2.24,2.24,0,0,1-1.39.38h-2Zm2,2.2q1,0,1-.75t-1-.75H78.43v1.51Zm.13,2.23a1.15,1.15,0,0,0,.73-.2.78.78,0,0,0,0-1.14,1.15,1.15,0,0,0-.73-.2H78.43v1.54Z"/><path class="cls-1" d="M84.68,35.26h-1.1v2h-.82V32.19h2.09a2,2,0,0,1,1.31.41,1.4,1.4,0,0,1,.48,1.13,1.46,1.46,0,0,1-.28.92,1.53,1.53,0,0,1-.8.52l1.39,2.14H86Zm-1.1-.69h1.2a1.16,1.16,0,0,0,.75-.21.93.93,0,0,0,0-1.27,1.17,1.17,0,0,0-.75-.21h-1.2Z"/><path class="cls-1" d="M90.86,36H88.7l-.49,1.34h-.85l1.93-5.12h1l1.93,5.12h-.88Zm-.25-.68L90,33.65l-.23-.74h0l-.22.72-.61,1.66Z"/><path class="cls-1" d="M96,32.36a2.19,2.19,0,0,1,.84.78l-.63.57A1.55,1.55,0,0,0,95.7,33a1.59,1.59,0,0,0-.87-.21A1.4,1.4,0,0,0,94,33a.65.65,0,0,0-.29.55.56.56,0,0,0,.29.49,3.09,3.09,0,0,0,1,.31,4.57,4.57,0,0,1,1.1.31,1.39,1.39,0,0,1,.59.47,1.25,1.25,0,0,1,.19.7,1.28,1.28,0,0,1-.26.79,1.6,1.6,0,0,1-.72.52,2.89,2.89,0,0,1-1.07.18,2.39,2.39,0,0,1-2.2-1l.58-.58a1.63,1.63,0,0,0,.64.68,2,2,0,0,0,1,.22,1.67,1.67,0,0,0,.87-.19.6.6,0,0,0,.31-.54.51.51,0,0,0-.28-.45,3.24,3.24,0,0,0-1-.3,4.89,4.89,0,0,1-1.13-.33,1.41,1.41,0,0,1-.61-.48,1.24,1.24,0,0,1-.19-.7,1.39,1.39,0,0,1,.24-.79,1.64,1.64,0,0,1,.7-.57,2.5,2.5,0,0,1,1.06-.21A2.62,2.62,0,0,1,96,32.36Z"/><path class="cls-1" d="M98.89,37.31h-.83V32.19h.83Z"/><path class="cls-1" d="M104.07,36.6v.71h-3.66V32.19h.83V36.6Z"/><path class="cls-1" d="M62.53,28.38h4.22V9H62.53Z"/><path class="cls-1" d="M41.93,25.9a13.74,13.74,0,0,0,8.59,3c6,0,8.63-3.75,8.63-7.46,0-4.59-4-6.18-7.62-7.58-2.55-1-5.1-2-5.1-4.15,0-2,1.85-3.4,4.32-3.4h2.61V2.41H50.83c-5.11,0-8.67,3-8.67,7.32,0,4.49,4.09,6.19,7.71,7.69,2.62,1.09,5,2,5,4.12S53.12,25,50.6,25a11.7,11.7,0,0,1-6.42-2.35Z"/><path class="cls-1" d="M62.49,6.36h4.22v-4H62.49Z"/><path class="cls-1" d="M82.07,3.36a12.58,12.58,0,0,0-13,12.73c0,7.56,5.34,12.85,13,12.85a14,14,0,0,0,8-2.45L88.84,23a11.25,11.25,0,0,1-6.46,2.32c-6.21,0-9.28-4.83-9.28-9.37,0-4.31,2.68-9,9.28-9A11.31,11.31,0,0,1,88,8.64l0,0,2.15-2.93A14.05,14.05,0,0,0,82.07,3.36Z"/><path class="cls-1" d="M106.35,5.58,99.75,23.26,95.47,12.58a15.75,15.75,0,0,0-3.25-5.05L90,10.44a12.87,12.87,0,0,1,2.32,3.93l5.17,14.14h4.6l8.46-22.94Z"/><path class="cls-1" d="M36.42,14.53a44.63,44.63,0,0,0-12.05-1.39c-.87,0-1.72.09-2.55.19h0c-.19,0-.44-.06-8.29-5.23L13.36,8l-1-5.25c-1.25-.12-2.5-.21-3.75-.24-1.43,0-2.84,0-4.21,0L6.71,13.39l7.52-.19,3.16,6.62a57.56,57.56,0,0,1,8.83-1,52.29,52.29,0,0,1,12.75,1A36.22,36.22,0,0,0,36.42,14.53Z"/><path class="cls-1" d="M31.17,4.62A42.72,42.72,0,0,0,15.64.2c-1-.1-2-.16-3-.2l1.45,7.52,0,0,5.44-.06,2.27,5c.79-.09,1.64-.15,2.5-.18A46.67,46.67,0,0,1,38.2,14.16C37.34,12.12,34.68,6.43,31.17,4.62Z"/><path class="cls-1" d="M17.43,20.65c-.19,0-.43,0-11.29-6.65L6,13.91,4.35,6.21H4.26q-2.2.19-4.26.53L5.22,27.91C15.43,21.12,36,23.44,36,23.44L34.57,20A57.49,57.49,0,0,0,17.43,20.65Z"/></g></g></svg>